<?xml version="1.0" standalone="no"?><!DOCTYPE svg PUBLIC "-//W3C//DTD SVG 1.1//EN" "http://www.w3.org/Graphics/SVG/1.1/DTD/svg11.dtd"><svg t="1611564743137" class="icon" viewBox="0 0 1024 1024" version="1.1" xmlns="http://www.w3.org/2000/svg" p-id="4757" xmlns:xlink="http://www.w3.org/1999/xlink" width="200" height="200"><defs><style type="text/css"></style></defs><path d="M560 744c-26.56 0-48 21.44-48 48v-640c0-26.56 21.44-48 48-48h400v624c0 8.816-7.2 16-16 16H560zM464 104c26.56 0 48 21.44 48 48v640c0-26.56-21.44-48-48-48H64v-640h400z" fill="#FFFFFF" p-id="4758"></path><path d="M64 152v592h400c26.56 0 48 21.44 48 48H48a32 32 0 0 1-32-32v-576c0-17.76 14.24-32 32-32h16zM1008 184v576a32 32 0 0 1-32 32H512c0-26.56 21.44-48 48-48h400v-592h16v-0.16c17.76 0 32 14.4 32 32.16z" fill="#94C1FF" p-id="4759"></path><path d="M864 888l-64 32-32-32 32-32z" fill="#FFFFFF" p-id="4760"></path><path d="M160 856h80v64h-80z" fill="#D7E9FF" p-id="4761"></path><path d="M336 856v64h-96v-64h48z" fill="#FFFFFF" p-id="4762"></path><path d="M800 920H336v-64h464l-32 32z" fill="#D7E9FF" p-id="4763"></path><path d="M64 168H47.984a16 16 0 1 1 0-32H64a16 16 0 1 1 0 32zM16 776a16 16 0 0 1-16-16v-576a16 16 0 1 1 32 0v576a16 16 0 0 1-16 16zM975.984 808h-928a16 16 0 1 1 0-32h928a16 16 0 1 1 0 32zM1008 776a16 16 0 0 1-16-16v-576a16 16 0 1 1 32 0v576a16 16 0 0 1-16 16zM975.984 168H960a16 16 0 1 1 0-32h15.984a16 16 0 1 1 0 32zM960 120H560a16 16 0 1 1 0-32h400a16 16 0 1 1 0 32z" fill="#116FFF" p-id="4764"></path><path d="M512 808a16 16 0 0 1-16-16c0-35.296 28.704-64 64-64a16 16 0 1 1 0 32c-17.648 0-32 14.352-32 32a16 16 0 0 1-16 16z" fill="#116FFF" p-id="4765"></path><path d="M960 760H560a16 16 0 1 1 0-32h400a16 16 0 1 1 0 32z" fill="#116FFF" p-id="4766"></path><path d="M960 760a16 16 0 0 1-16-16v-640a16 16 0 1 1 32 0v640a16 16 0 0 1-16 16zM464 120H64a16 16 0 1 1 0-32h400a16 16 0 1 1 0 32zM512 808a16 16 0 0 1-16-16c0-17.648-14.352-32-32-32a16 16 0 1 1 0-32c35.296 0 64 28.704 64 64a16 16 0 0 1-16 16zM512 168a16 16 0 0 1-16-16c0-35.296 28.704-64 64-64a16 16 0 1 1 0 32c-17.648 0-32 14.352-32 32a16 16 0 0 1-16 16z" fill="#116FFF" p-id="4767"></path><path d="M512 168a16 16 0 0 1-16-16c0-17.648-14.352-32-32-32a16 16 0 1 1 0-32c35.296 0 64 28.704 64 64a16 16 0 0 1-16 16zM464 760H64a16 16 0 1 1 0-32h400a16 16 0 1 1 0 32z" fill="#116FFF" p-id="4768"></path><path d="M64 760a16 16 0 0 1-16-16v-640a16 16 0 1 1 32 0v640a16 16 0 0 1-16 16zM512 808a16 16 0 0 1-16-16v-640a16 16 0 1 1 32 0v640a16 16 0 0 1-16 16z" fill="#116FFF" p-id="4769"></path><path d="M16 200a16 16 0 0 1-16-16c0-26.464 21.536-48 48-48a16 16 0 1 1 0 32c-8.832 0-16 7.184-16 16a16 16 0 0 1-16 16zM48 808c-26.464 0-48-21.536-48-48a16 16 0 1 1 32 0 16 16 0 0 0 16 16 16 16 0 1 1 0 32zM976 808a16 16 0 1 1 0-32 16 16 0 0 0 16-16 16 16 0 1 1 32 0c0 26.464-21.536 48-48 48zM1008 200c-8.848 0-16-7.168-16-16s-7.184-16.032-16.016-16.032a16 16 0 1 1 0-32A48.096 48.096 0 0 1 1024 184a16 16 0 0 1-16 16zM944 760a16 16 0 1 1 0-32 16 16 0 1 1 32 0c0 17.648-14.352 32-32 32zM128.48 184c-8.848 0-16.08-7.168-16.08-16s7.072-16 15.904-16h0.176a16 16 0 0 1 0 32zM192.48 184c-8.848 0-16.08-7.168-16.08-16s7.072-16 15.904-16h0.176a16 16 0 0 1 0 32zM256.48 184c-8.848 0-16.08-7.168-16.08-16s7.072-16 15.904-16h0.176a16 16 0 0 1 0 32zM320.48 184c-8.848 0-16.08-7.168-16.08-16s7.072-16 15.904-16h0.176a16 16 0 0 1 0 32zM384.48 184c-8.848 0-16.08-7.168-16.08-16s7.072-16 15.904-16h0.176a16 16 0 0 1 0 32zM448.48 184c-8.848 0-16.08-7.168-16.08-16s7.072-16 15.904-16h0.176a16 16 0 0 1 0 32zM128.48 248c-8.848 0-16.08-7.168-16.08-16s7.072-16 15.904-16h0.176a16 16 0 0 1 0 32zM192.48 248c-8.848 0-16.08-7.168-16.08-16s7.072-16 15.904-16h0.176a16 16 0 0 1 0 32zM256.48 248c-8.848 0-16.08-7.168-16.08-16s7.072-16 15.904-16h0.176a16 16 0 0 1 0 32zM320.48 248c-8.848 0-16.08-7.168-16.08-16s7.072-16 15.904-16h0.176a16 16 0 0 1 0 32zM384.48 248c-8.848 0-16.08-7.168-16.08-16s7.072-16 15.904-16h0.176a16 16 0 0 1 0 32zM448.48 248c-8.848 0-16.08-7.168-16.08-16s7.072-16 15.904-16h0.176a16 16 0 0 1 0 32zM128.48 312c-8.848 0-16.08-7.168-16.08-16s7.072-16 15.904-16h0.176a16 16 0 0 1 0 32zM192.48 312c-8.848 0-16.08-7.168-16.08-16s7.072-16 15.904-16h0.176a16 16 0 0 1 0 32zM256.48 312c-8.848 0-16.08-7.168-16.08-16s7.072-16 15.904-16h0.176a16 16 0 0 1 0 32zM320.48 312c-8.848 0-16.08-7.168-16.08-16s7.072-16 15.904-16h0.176a16 16 0 0 1 0 32zM384.48 312c-8.848 0-16.08-7.168-16.08-16s7.072-16 15.904-16h0.176a16 16 0 0 1 0 32zM448.48 312c-8.848 0-16.08-7.168-16.08-16s7.072-16 15.904-16h0.176a16 16 0 0 1 0 32zM128.48 376c-8.848 0-16.08-7.168-16.08-16s7.072-16 15.904-16h0.176a16 16 0 0 1 0 32zM192.48 376c-8.848 0-16.08-7.168-16.08-16s7.072-16 15.904-16h0.176a16 16 0 0 1 0 32zM256.48 376c-8.848 0-16.08-7.168-16.08-16s7.072-16 15.904-16h0.176a16 16 0 0 1 0 32zM320.48 376c-8.848 0-16.08-7.168-16.08-16s7.072-16 15.904-16h0.176a16 16 0 0 1 0 32zM384.48 376c-8.848 0-16.08-7.168-16.08-16s7.072-16 15.904-16h0.176a16 16 0 0 1 0 32zM448.48 376c-8.848 0-16.08-7.168-16.08-16s7.072-16 15.904-16h0.176a16 16 0 0 1 0 32zM128.48 440c-8.848 0-16.08-7.168-16.08-16s7.072-16 15.904-16h0.176a16 16 0 0 1 0 32zM192.48 440c-8.848 0-16.08-7.168-16.08-16s7.072-16 15.904-16h0.176a16 16 0 0 1 0 32zM256.48 440c-8.848 0-16.08-7.168-16.08-16s7.072-16 15.904-16h0.176a16 16 0 0 1 0 32zM320.48 440c-8.848 0-16.08-7.168-16.08-16s7.072-16 15.904-16h0.176a16 16 0 0 1 0 32zM384.48 440c-8.848 0-16.08-7.168-16.08-16s7.072-16 15.904-16h0.176a16 16 0 0 1 0 32zM448.48 440c-8.848 0-16.08-7.168-16.08-16s7.072-16 15.904-16h0.176a16 16 0 0 1 0 32zM128.48 504c-8.848 0-16.08-7.168-16.08-16s7.072-16 15.904-16h0.176a16 16 0 0 1 0 32zM192.48 504c-8.848 0-16.08-7.168-16.08-16s7.072-16 15.904-16h0.176a16 16 0 0 1 0 32zM256.48 504c-8.848 0-16.08-7.168-16.08-16s7.072-16 15.904-16h0.176a16 16 0 0 1 0 32zM320.48 504c-8.848 0-16.08-7.168-16.08-16s7.072-16 15.904-16h0.176a16 16 0 0 1 0 32zM384.48 504c-8.848 0-16.08-7.168-16.08-16s7.072-16 15.904-16h0.176a16 16 0 0 1 0 32zM448.48 504c-8.848 0-16.08-7.168-16.08-16s7.072-16 15.904-16h0.176a16 16 0 0 1 0 32zM128.48 568c-8.848 0-16.08-7.152-16.08-16s7.072-16 15.904-16h0.176a16 16 0 1 1 0 32zM192.48 568c-8.848 0-16.08-7.152-16.08-16s7.072-16 15.904-16h0.176a16 16 0 1 1 0 32zM256.48 568c-8.848 0-16.08-7.152-16.08-16s7.072-16 15.904-16h0.176a16 16 0 1 1 0 32zM320.48 568c-8.848 0-16.08-7.152-16.08-16s7.072-16 15.904-16h0.176a16 16 0 1 1 0 32zM384.48 568c-8.848 0-16.08-7.152-16.08-16s7.072-16 15.904-16h0.176a16 16 0 1 1 0 32zM448.48 568c-8.848 0-16.08-7.152-16.08-16s7.072-16 15.904-16h0.176a16 16 0 1 1 0 32zM128.48 632c-8.848 0-16.08-7.152-16.08-16s7.072-16 15.904-16h0.176a16 16 0 1 1 0 32zM192.48 632c-8.848 0-16.08-7.152-16.08-16s7.072-16 15.904-16h0.176a16 16 0 1 1 0 32zM256.48 632c-8.848 0-16.08-7.152-16.08-16s7.072-16 15.904-16h0.176a16 16 0 1 1 0 32zM320.48 632c-8.848 0-16.08-7.152-16.08-16s7.072-16 15.904-16h0.176a16 16 0 1 1 0 32zM384.48 632c-8.848 0-16.08-7.152-16.08-16s7.072-16 15.904-16h0.176a16 16 0 1 1 0 32zM448.48 632c-8.848 0-16.08-7.152-16.08-16s7.072-16 15.904-16h0.176a16 16 0 1 1 0 32zM128.48 696c-8.848 0-16.08-7.152-16.08-16s7.072-16 15.904-16h0.176a16 16 0 1 1 0 32zM192.48 696c-8.848 0-16.08-7.152-16.08-16s7.072-16 15.904-16h0.176a16 16 0 1 1 0 32zM256.48 696c-8.848 0-16.08-7.152-16.08-16s7.072-16 15.904-16h0.176a16 16 0 1 1 0 32zM320.48 696c-8.848 0-16.08-7.152-16.08-16s7.072-16 15.904-16h0.176a16 16 0 1 1 0 32zM384.48 696c-8.848 0-16.08-7.152-16.08-16s7.072-16 15.904-16h0.176a16 16 0 1 1 0 32zM448.48 696c-8.848 0-16.08-7.152-16.08-16s7.072-16 15.904-16h0.176a16 16 0 1 1 0 32z" fill="#116FFF" p-id="4770"></path><path d="M576.48 184c-8.848 0-16.08-7.168-16.08-16s7.072-16 15.904-16h0.176a16 16 0 0 1 0 32zM640.48 184c-8.848 0-16.08-7.168-16.08-16s7.072-16 15.904-16h0.176a16 16 0 0 1 0 32zM704.48 184c-8.848 0-16.08-7.168-16.08-16s7.072-16 15.904-16h0.176a16 16 0 0 1 0 32zM768.48 184c-8.848 0-16.08-7.168-16.08-16s7.072-16 15.904-16h0.176a16 16 0 0 1 0 32zM832.48 184c-8.848 0-16.08-7.168-16.08-16s7.072-16 15.904-16h0.176a16 16 0 0 1 0 32zM896.48 184c-8.848 0-16.08-7.168-16.08-16s7.072-16 15.904-16h0.176a16 16 0 0 1 0 32zM576.48 248c-8.848 0-16.08-7.168-16.08-16s7.072-16 15.904-16h0.176a16 16 0 0 1 0 32zM640.48 248c-8.848 0-16.08-7.168-16.08-16s7.072-16 15.904-16h0.176a16 16 0 0 1 0 32zM704.48 248c-8.848 0-16.08-7.168-16.08-16s7.072-16 15.904-16h0.176a16 16 0 0 1 0 32zM768.48 248c-8.848 0-16.08-7.168-16.08-16s7.072-16 15.904-16h0.176a16 16 0 0 1 0 32zM832.48 248c-8.848 0-16.08-7.168-16.08-16s7.072-16 15.904-16h0.176a16 16 0 0 1 0 32zM896.48 248c-8.848 0-16.08-7.168-16.08-16s7.072-16 15.904-16h0.176a16 16 0 0 1 0 32zM576.48 312c-8.848 0-16.08-7.168-16.08-16s7.072-16 15.904-16h0.176a16 16 0 0 1 0 32zM640.48 312c-8.848 0-16.08-7.168-16.08-16s7.072-16 15.904-16h0.176a16 16 0 0 1 0 32zM704.48 312c-8.848 0-16.08-7.168-16.08-16s7.072-16 15.904-16h0.176a16 16 0 0 1 0 32zM768.48 312c-8.848 0-16.08-7.168-16.08-16s7.072-16 15.904-16h0.176a16 16 0 0 1 0 32zM832.48 312c-8.848 0-16.08-7.168-16.08-16s7.072-16 15.904-16h0.176a16 16 0 0 1 0 32zM896.48 312c-8.848 0-16.08-7.168-16.08-16s7.072-16 15.904-16h0.176a16 16 0 0 1 0 32zM576.48 376c-8.848 0-16.08-7.168-16.08-16s7.072-16 15.904-16h0.176a16 16 0 0 1 0 32zM640.48 376c-8.848 0-16.08-7.168-16.08-16s7.072-16 15.904-16h0.176a16 16 0 0 1 0 32zM704.48 376c-8.848 0-16.08-7.168-16.08-16s7.072-16 15.904-16h0.176a16 16 0 0 1 0 32zM768.48 376c-8.848 0-16.08-7.168-16.08-16s7.072-16 15.904-16h0.176a16 16 0 0 1 0 32zM832.48 376c-8.848 0-16.08-7.168-16.08-16s7.072-16 15.904-16h0.176a16 16 0 0 1 0 32zM896.48 376c-8.848 0-16.08-7.168-16.08-16s7.072-16 15.904-16h0.176a16 16 0 0 1 0 32zM576.48 440c-8.848 0-16.08-7.168-16.08-16s7.072-16 15.904-16h0.176a16 16 0 0 1 0 32zM640.48 440c-8.848 0-16.08-7.168-16.08-16s7.072-16 15.904-16h0.176a16 16 0 0 1 0 32zM704.48 440c-8.848 0-16.08-7.168-16.08-16s7.072-16 15.904-16h0.176a16 16 0 0 1 0 32zM768.48 440c-8.848 0-16.08-7.168-16.08-16s7.072-16 15.904-16h0.176a16 16 0 0 1 0 32zM832.48 440c-8.848 0-16.08-7.168-16.08-16s7.072-16 15.904-16h0.176a16 16 0 0 1 0 32zM896.48 440c-8.848 0-16.08-7.168-16.08-16s7.072-16 15.904-16h0.176a16 16 0 0 1 0 32zM576.48 504c-8.848 0-16.08-7.168-16.08-16s7.072-16 15.904-16h0.176a16 16 0 0 1 0 32zM640.48 504c-8.848 0-16.08-7.168-16.08-16s7.072-16 15.904-16h0.176a16 16 0 0 1 0 32zM704.48 504c-8.848 0-16.08-7.168-16.08-16s7.072-16 15.904-16h0.176a16 16 0 0 1 0 32zM768.48 504c-8.848 0-16.08-7.168-16.08-16s7.072-16 15.904-16h0.176a16 16 0 0 1 0 32zM832.48 504c-8.848 0-16.08-7.168-16.08-16s7.072-16 15.904-16h0.176a16 16 0 0 1 0 32zM896.48 504c-8.848 0-16.08-7.168-16.08-16s7.072-16 15.904-16h0.176a16 16 0 0 1 0 32zM576.48 568c-8.848 0-16.08-7.152-16.08-16s7.072-16 15.904-16h0.176a16 16 0 1 1 0 32zM640.48 568c-8.848 0-16.08-7.152-16.08-16s7.072-16 15.904-16h0.176a16 16 0 1 1 0 32zM704.48 568c-8.848 0-16.08-7.152-16.08-16s7.072-16 15.904-16h0.176a16 16 0 1 1 0 32zM768.48 568c-8.848 0-16.08-7.152-16.08-16s7.072-16 15.904-16h0.176a16 16 0 1 1 0 32zM832.48 568c-8.848 0-16.08-7.152-16.08-16s7.072-16 15.904-16h0.176a16 16 0 1 1 0 32zM896.48 568c-8.848 0-16.08-7.152-16.08-16s7.072-16 15.904-16h0.176a16 16 0 1 1 0 32zM576.48 632c-8.848 0-16.08-7.152-16.08-16s7.072-16 15.904-16h0.176a16 16 0 1 1 0 32zM640.48 632c-8.848 0-16.08-7.152-16.08-16s7.072-16 15.904-16h0.176a16 16 0 1 1 0 32zM704.48 632c-8.848 0-16.08-7.152-16.08-16s7.072-16 15.904-16h0.176a16 16 0 1 1 0 32zM768.48 632c-8.848 0-16.08-7.152-16.08-16s7.072-16 15.904-16h0.176a16 16 0 1 1 0 32zM832.48 632c-8.848 0-16.08-7.152-16.08-16s7.072-16 15.904-16h0.176a16 16 0 1 1 0 32zM896.48 632c-8.848 0-16.08-7.152-16.08-16s7.072-16 15.904-16h0.176a16 16 0 1 1 0 32zM576.48 696c-8.848 0-16.08-7.152-16.08-16s7.072-16 15.904-16h0.176a16 16 0 1 1 0 32zM640.48 696c-8.848 0-16.08-7.152-16.08-16s7.072-16 15.904-16h0.176a16 16 0 1 1 0 32zM704.48 696c-8.848 0-16.08-7.152-16.08-16s7.072-16 15.904-16h0.176a16 16 0 1 1 0 32zM768.48 696c-8.848 0-16.08-7.152-16.08-16s7.072-16 15.904-16h0.176a16 16 0 1 1 0 32zM832.48 696c-8.848 0-16.08-7.152-16.08-16s7.072-16 15.904-16h0.176a16 16 0 1 1 0 32zM896.48 696c-8.848 0-16.08-7.152-16.08-16s7.072-16 15.904-16h0.176a16 16 0 1 1 0 32z" fill="#116FFF" p-id="4771"></path><path d="M800 872H160a16 16 0 1 1 0-32h640a16 16 0 1 1 0 32zM800 936H160a16 16 0 1 1 0-32h640a16 16 0 1 1 0 32z" fill="#116FFF" p-id="4772"></path><path d="M160 936a16 16 0 0 1-16-16v-64a16 16 0 1 1 32 0v64a16 16 0 0 1-16 16zM240 936a16 16 0 0 1-16-16v-64a16 16 0 1 1 32 0v64a16 16 0 0 1-16 16zM336 936a16 16 0 0 1-16-16v-64a16 16 0 1 1 32 0v64a16 16 0 0 1-16 16zM288 888a16 16 0 0 1-16-16v-16a16 16 0 1 1 32 0v16a16 16 0 0 1-16 16z" fill="#116FFF" p-id="4773"></path><path d="M288 936a16 16 0 0 1-16-16v-16a16 16 0 1 1 32 0v16a16 16 0 0 1-16 16zM800.016 936a16 16 0 0 1-7.184-30.32l64-32a16 16 0 0 1 14.32 28.624l-64 32a15.84 15.84 0 0 1-7.136 1.696z" fill="#116FFF" p-id="4774"></path><path d="M863.984 904c-2.4 0-4.848-0.544-7.136-1.68l-64-32a16 16 0 0 1 14.32-28.624l64 32a16 16 0 0 1-7.184 30.304z" fill="#116FFF" p-id="4775"></path><path d="M768 904a15.984 15.984 0 0 1-11.312-27.312l32-32a15.984 15.984 0 1 1 22.624 22.624l-32 32A15.952 15.952 0 0 1 768 904z" fill="#116FFF" p-id="4776"></path><path d="M800 936a15.952 15.952 0 0 1-11.312-4.688l-32-32a15.984 15.984 0 1 1 22.624-22.624l32 32A15.984 15.984 0 0 1 800 936z" fill="#116FFF" p-id="4777"></path></svg>